<?xml version="1.0" encoding="UTF-8"?>
<svg id="Layer_1" xmlns="http://www.w3.org/2000/svg" version="1.1" viewBox="0 0 188.75 65.5">
  <!-- Generator: Adobe Illustrator 29.8.2, SVG Export Plug-In . SVG Version: 2.1.1 Build 3)  -->
  <defs>
    <style>
      .st0, .st1 {
        fill: #231f20;
      }

      .st2 {
        fill: #009ddc;
      }

      .st1 {
        fill-rule: evenodd;
      }
    </style>
  </defs>
  <path class="st1" d="M86.66,29.2l4.61-1.45v11.6l5.23.49v-18.32l-33.66,15.14,4.46.44v-1.84l2.21-.69v2.73l2.72.26v-3.85l2.78-.86v4.97l3.67.34v-6.46l3.51-1.1v7.9l4.46.42v-9.72h0ZM123.49,37.3v-2.73l2.21.69v1.83l-2.21.2h0ZM117.99,37.82v-4.96l2.76.86v3.84l-2.76.27h0ZM110.81,38.5v-7.89l3.51,1.1v6.46l-3.51.33h0ZM101.75,39.36v-11.6l4.6,1.45v9.71l-4.6.44Z"/>
  <path class="st2" d="M39.03,26.21c-.26.06-.53-.1-.59-.36-.07-.26.1-.52.36-.59,53.71-12.57,85.24-13.7,113.96-14.68,2.8-.09,5.56-.19,8.31-.29.49-.02.55.93.06.97h-.03s-.01,0-.03,0c-1.22.11-26.06,2.42-46.66,5.96,23.77-2.53,51.65-3.62,51.74-3.62.49-.02.57.91.08.97-.06,0-22.67,2.79-57.26,13.11l-1.19-.54c16.36-4.71,32.73-9.18,49.51-12.15-13.25.68-38.49,2.24-56.18,4.87-.48.07-.65-.85-.18-.96,13.24-3.12,32.83-5.66,46.01-7.15-27.37.99-57.91,2.75-107.92,14.46Z"/>
  <g>
    <g>
      <path class="st0" d="M17.54,45.2v5.88c0,1.3.22,2.13.66,2.48.44.35,1.06.53,1.86.53.87,0,1.52-.18,1.96-.53.44-.35.66-1.17.66-2.45v-5.91h1.04v5.84c0,1.6-.32,2.66-.95,3.19-.63.52-1.56.79-2.77.79s-2.07-.27-2.65-.8c-.57-.54-.86-1.59-.86-3.15v-5.86h1.05Z"/>
      <path class="st0" d="M26.62,46.93v7.94h-1.04v-9.66s1.04,0,1.04,0l4.8,7.97v-7.97h1.05v9.66h-1l-4.85-7.94Z"/>
      <path class="st0" d="M34.33,54.86v-9.66h1.04v9.66h-1.04Z"/>
      <path class="st0" d="M42.61,45.2h1.11l-3.17,9.66h-1.01l-3.06-9.66h1.13l2.48,8.15,2.51-8.15Z"/>
      <path class="st0" d="M50,46.05h-4.11v3.29h3.28v.81h-3.28v3.86h4.3v.85h-5.35v-9.66h5.16v.85Z"/>
      <path class="st0" d="M52.71,54.86h-1.05v-9.66h2.62c1.03,0,1.8.24,2.32.72.52.48.78,1.16.78,2.04,0,.58-.2,1.12-.61,1.61-.4.49-.87.8-1.4.95l2.7,4.35h-1.25l-2.49-4.14c-.05,0-.6.02-1.63.03v4.12ZM52.71,49.95h1.01c.83,0,1.46-.19,1.92-.56.45-.37.67-.85.67-1.44,0-.67-.19-1.16-.56-1.46-.38-.3-1-.45-1.86-.45h-1.17v3.92Z"/>
      <path class="st0" d="M59.46,52.9c.29.32.65.61,1.07.86.42.25.91.37,1.46.37.63,0,1.14-.15,1.52-.44.38-.29.57-.72.57-1.27s-.17-.95-.52-1.21c-.35-.26-.87-.52-1.56-.78l-.53-.22c-.74-.26-1.36-.62-1.86-1.06-.5-.44-.75-1.03-.75-1.76s.29-1.33.86-1.77c.57-.44,1.29-.66,2.16-.66.66,0,1.22.1,1.66.3.44.2.85.48,1.22.86l-.61.7c-.27-.25-.58-.47-.93-.67-.36-.2-.8-.3-1.32-.3-.56,0-1.03.13-1.41.4-.38.27-.56.61-.56,1.03,0,.51.21.92.63,1.2.42.29.85.52,1.3.69l.91.38c.94.35,1.58.73,1.91,1.14.33.4.5.93.5,1.59,0,.88-.31,1.55-.93,2.03-.62.48-1.38.72-2.27.72-.37,0-.7-.03-1.01-.08-.31-.05-.59-.13-.86-.24-.27-.11-.52-.25-.76-.43-.24-.17-.47-.38-.7-.62l.8-.75Z"/>
      <path class="st0" d="M66.56,54.86v-9.66h1.05v9.66h-1.05Z"/>
      <path class="st0" d="M71.52,45.2c1.54,0,2.69.42,3.45,1.26.75.84,1.13,1.97,1.13,3.4,0,1.61-.4,2.84-1.2,3.71-.8.87-1.95,1.3-3.45,1.3h-2v-9.66h2.06ZM70.51,46v8.06h.78c1.16,0,2.06-.36,2.71-1.07.65-.71.98-1.77.98-3.16,0-1.22-.31-2.16-.91-2.83-.61-.67-1.52-1-2.74-1h-.81Z"/>
      <path class="st0" d="M80.39,45.2h1.02l3.2,9.66h-1.16l-1.03-3.29h-3.26l-1.04,3.29h-1.04l3.3-9.66ZM79.38,50.82h2.83l-1.39-4.42-1.44,4.42Z"/>
      <path class="st0" d="M87.77,45.2c1.54,0,2.69.42,3.45,1.26.76.84,1.13,1.97,1.13,3.4,0,1.61-.4,2.84-1.2,3.71-.8.87-1.95,1.3-3.45,1.3h-2v-9.66h2.07ZM86.75,46v8.06h.78c1.16,0,2.06-.36,2.71-1.07.65-.71.98-1.77.98-3.16,0-1.22-.31-2.16-.91-2.83-.61-.67-1.52-1-2.74-1h-.81Z"/>
      <path class="st0" d="M99.23,46.05h-4.11v3.29h3.28v.81h-3.28v3.86h4.3v.85h-5.34v-9.66h5.16v.85Z"/>
    </g>
    <g>
      <path class="st0" d="M106.9,48.1c.57,0,1.14.11,1.71.34v-3.24h.98v7.56c0,.55.02.96.07,1.24.05.28.12.57.21.86h-.91c-.05-.07-.1-.15-.15-.25-.05-.09-.08-.2-.11-.3-.3.19-.6.35-.9.47-.31.12-.69.18-1.16.18-.83,0-1.5-.31-2-.94-.5-.63-.75-1.44-.75-2.42s.28-1.83.83-2.5c.55-.67,1.29-1,2.2-1ZM106.78,54.13c.4,0,.72-.03.98-.1.25-.07.54-.23.85-.48v-4.35c-.46-.16-.98-.25-1.53-.25-.77,0-1.33.27-1.67.79-.34.53-.51,1.13-.51,1.79,0,.71.17,1.32.51,1.83.34.51.8.77,1.38.77Z"/>
      <path class="st0" d="M111.65,49.03c.15-.14.33-.27.53-.38.2-.11.42-.22.64-.3.23-.08.47-.15.71-.19.25-.05.49-.06.73-.06.68,0,1.23.17,1.63.51.4.34.61.81.61,1.42v2.96c0,.25,0,.44.02.6.02.15.05.28.09.37s.1.15.17.19c.07.03.16.05.27.05.14,0,.28-.01.42-.04l.16.45c-.11.11-.27.19-.47.26-.2.06-.42.1-.66.1-.26,0-.47-.09-.63-.27-.16-.18-.26-.44-.31-.79-.35.32-.73.58-1.14.78-.41.19-.86.28-1.33.28-.26,0-.5-.04-.72-.11-.23-.08-.42-.19-.58-.33-.16-.14-.29-.32-.39-.53-.09-.21-.14-.45-.14-.71,0-.36.07-.67.21-.93.14-.26.32-.49.55-.67.22-.19.48-.33.78-.45.3-.11.6-.2.91-.27.32-.06.63-.11.94-.13.31-.02.6-.03.86-.03v-.68c0-.44-.11-.75-.34-.95-.23-.2-.54-.29-.95-.29-.23,0-.44.03-.65.08-.2.05-.38.12-.56.2-.17.08-.33.17-.48.27-.14.1-.27.19-.39.28l-.52-.67ZM115.53,51.37c-.56.01-1.04.06-1.44.15-.4.09-.74.21-.99.36-.26.15-.45.33-.58.53-.12.2-.18.43-.18.68,0,.35.1.61.3.77.2.16.47.25.82.25.19,0,.38-.02.56-.06.19-.04.37-.1.55-.17.18-.07.35-.15.51-.25.16-.1.31-.2.46-.31v-1.96Z"/>
    </g>
    <g>
      <path class="st0" d="M126.51,54.86h-.96l-2.44-7.28v7.28h-1.05v-9.66h1.08l2.89,8.58,2.85-8.58h1.08v9.66h-1.04v-7.28l-2.41,7.28Z"/>
      <path class="st0" d="M134.39,45.2h1.02l3.21,9.66h-1.16l-1.03-3.29h-3.26l-1.04,3.29h-1.04l3.3-9.66ZM133.38,50.82h2.83l-1.39-4.42-1.44,4.42Z"/>
      <path class="st0" d="M141.77,45.2c1.54,0,2.69.42,3.45,1.26.76.84,1.13,1.97,1.13,3.4,0,1.61-.4,2.84-1.2,3.71-.8.87-1.95,1.3-3.45,1.3h-2v-9.66h2.06ZM140.75,46v8.06h.78c1.16,0,2.06-.36,2.71-1.07.65-.71.97-1.77.97-3.16,0-1.22-.31-2.16-.92-2.83-.61-.67-1.52-1-2.74-1h-.81Z"/>
      <path class="st0" d="M153.23,46.05h-4.11v3.29h3.28v.81h-3.28v3.86h4.3v.85h-5.35v-9.66h5.16v.85Z"/>
      <path class="st0" d="M154.9,54.86v-9.66h1.05v9.66h-1.05Z"/>
      <path class="st0" d="M158.84,54.86h-1.05v-9.66h2.62c1.03,0,1.8.24,2.32.72.52.48.78,1.16.78,2.04,0,.58-.2,1.12-.6,1.61-.41.49-.87.8-1.4.95l2.7,4.35h-1.25l-2.49-4.14c-.06,0-.6.02-1.64.03v4.12ZM158.84,49.95h1.01c.83,0,1.46-.19,1.92-.56.45-.37.67-.85.67-1.44,0-.67-.19-1.16-.56-1.46-.38-.3-1-.45-1.86-.45h-1.17v3.92Z"/>
      <path class="st0" d="M167.83,45.2h1.02l3.21,9.66h-1.16l-1.03-3.29h-3.26l-1.04,3.29h-1.04l3.31-9.66ZM166.82,50.82h2.83l-1.39-4.42-1.44,4.42Z"/>
    </g>
  </g>
</svg>